<svg xmlns="http://www.w3.org/2000/svg" fill="none" viewBox="0 0 16 19"><path fill="#fff" d="M1.495 7.34C-.024 9.976.941 13.976 2.621 16.4c.838 1.214 1.687 2.3 2.85 2.3h.066c.46-.03.909-.15 1.322-.352a3.626 3.626 0 0 1 1.566-.37 3.4 3.4 0 0 1 1.492.358c.443.224.932.342 1.428.342 1.31-.024 2.114-1.2 2.823-2.236a9.953 9.953 0 0 0 1.238-2.533v-.017a.146.146 0 0 0-.077-.18h-.011a3.755 3.755 0 0 1-2.275-3.439 3.86 3.86 0 0 1 1.827-3.23l.013-.01a.143.143 0 0 0 .065-.094.143.143 0 0 0-.023-.112 4.244 4.244 0 0 0-3.342-1.815 2.714 2.714 0 0 0-.29-.015 5.834 5.834 0 0 0-2.101.523 3.362 3.362 0 0 1-1 .3 3.3 3.3 0 0 1-1.04-.3 5.025 5.025 0 0 0-1.833-.466h-.046A4.49 4.49 0 0 0 1.495 7.34Z"/><path fill="#fff" d="M11.591.735a4.1 4.1 0 0 0-2.709 1.39 3.846 3.846 0 0 0-.973 2.85.147.147 0 0 0 .134.128c.063 0 .127.008.191.008A3.469 3.469 0 0 0 10.791 3.8a4.048 4.048 0 0 0 .952-2.93.149.149 0 0 0-.152-.134Z"/></svg>
