<svg xmlns="http://www.w3.org/2000/svg" viewBox="0 0 12.368 13.824"><g data-name="Group 440"><path fill="none" stroke="#121212" stroke-linecap="round" stroke-linejoin="round" stroke-width=".606" d="M7.639 12.126v-.347H4.851v.347a1.394 1.394 0 1 0 2.788 0Zm-6.723-.352h10.621a.423.423 0 0 0 .1-.02.54.54 0 0 0 .427-.523.523.523 0 0 0-.079-.265c-.111-.258-.5-.469-.947-1.005a5.166 5.166 0 0 1-1.011-3.135s0-1.369-.008-1.824a3.731 3.731 0 0 0-2.645-3.543h-.021a3.261 3.261 0 0 0-.324-.093v-.238a.825.825 0 0 0-.825-.825h0a.826.826 0 0 0-.826.825h0v.246c-.1.024-.194.055-.288.085h-.027a3.731 3.731 0 0 0-2.64 3.543c-.009.455-.008 1.824-.008 1.824a5.178 5.178 0 0 1-1.011 3.135c-.367.434-.687.653-.857.86a.544.544 0 0 0-.071.764h0a.542.542 0 0 0 .42.2.135.135 0 0 0 .018 0Z" data-name="Group 108"/></g></svg>
