<svg xmlns="http://www.w3.org/2000/svg" fill="none" viewBox="0 0 42 42"><path fill="#fff" d="M0 8a8 8 0 0 1 8-8h26a8 8 0 0 1 8 8v26a8 8 0 0 1-8 8H8a8 8 0 0 1-8-8V8Z"/><path fill="#000" d="M18.822 6.075a.956.956 0 0 0-.236.197c-.035.052-.07.678-.07 1.398 0 .712-.035 1.321-.07 1.347-.044.026-.5-.472-1.017-1.098-.639-.79-1.007-1.158-1.156-1.192-.263-.043-2.496.952-2.97 1.338-.7.558-.779 1.192-.48 3.603.087.763.21 1.913.262 2.548.131 1.69.289 2.136 1.051 2.96.237.257.455.565.49.694.053.214 0 .755-.578 5.739-.35 3.037-.262 2.728-.814 2.9-.254.077-.534.188-.613.248-.14.103-.526 1.742-1.42 6.048-.262 1.27-.262 1.347-.034 1.664.534.738 2.356 1.261 5.124 1.459 2.584.188 8.592-.009 12.21-.395 2.619-.275 3.801-.652 3.433-1.098-.043-.051-.21-.738-.359-1.518-1.2-6.22-1.112-5.86-1.401-6.108-.254-.223-.999-.498-1.34-.498-.193 0-.22-.06-.28-.729-.027-.283-.21-1.827-.412-3.431-.193-1.604-.377-3.243-.403-3.646-.044-.815-.14-.618.84-1.836.369-.472.386-.506.544-1.578.184-1.27.604-5.31.604-5.842a1.27 1.27 0 0 0-.455-1.004c-.272-.249-2.89-1.578-3.101-1.578-.245.008-.368.128-1.104 1.072-.368.472-.788.995-.937 1.158l-.263.3-.008-1.518c0-1.107-.027-1.536-.106-1.579-.201-.12-4.738-.137-4.93-.025Zm1.892.875c-.762.369-.753.334-.77 3.122-.018 1.888-.045 2.48-.132 2.557-.062.06-.683.283-1.384.506-1.437.446-2.76.943-2.278.866a60.94 60.94 0 0 1 1.227-.214c2.566-.446 5.15-.386 7.261.171.21.052.36.112.35.129-.017.009-.35-.009-.735-.043-1.69-.18-3.846-.068-5.475.275-1.918.403-2.987.849-3.784 1.595-.28.258-.525.455-.543.438-.192-.232-.42-1.176-.534-2.222-.368-3.423-.482-4.693-.438-4.898.07-.318.298-.507 1.358-1.098l.92-.515.052.274c.035.155.105.772.166 1.39.062.61.14 1.175.167 1.253.044.12.236.085 1.524-.215 1.156-.274 1.498-.386 1.576-.523.062-.103.114-.712.132-1.501.026-1.098.052-1.347.175-1.442.088-.06.412-.103.84-.103l.71.009-.385.189Zm5.334.729c0 .129-.035.54-.087.918-.044.377-.097.858-.114 1.072-.044.42-.114.446-.613.266-.316-.12-.307-.42.017-1.132.132-.3.333-.73.43-.961.2-.455.367-.523.367-.163Zm-2.102 7.506c1.016.24 2.032.583 1.866.635-.097.034-.981-.12-1.638-.283l-.228-.052v.91c0 .497.035.909.07.909.158 0 2.575.497 2.62.54.025.026.017.086-.01.129-.026.052-.368.017-.84-.077-1.21-.24-3.171-.42-4.643-.42-1.209 0-3.775.197-3.959.308-.158.095-.009-2.119.158-2.282.122-.12.91-.317 1.857-.471 1.2-.198 3.582-.112 4.747.154Zm-7.279 1.424c-.035.463-.105.918-.149 1.004-.052.094-.254.249-.446.36l-.36.197v-.712c0-.394.044-.858.088-1.03.105-.35.447-.668.736-.668.184 0 .184.025.131.849Zm6.237 1.501c.7.112 1.314.223 1.366.249.053.034.114.36.14.738.053.772.193 1.072.631 1.355.517.335.57.24.57-.96 0-.584.034-1.081.078-1.116.175-.103.29.343.29 1.141 0 1.064.052 1.192.551 1.313.394.094.543.197.412.274-.035.026-.42-.026-.85-.111a10.835 10.835 0 0 0-.998-.172h-.21l.06 1.218c.07 1.476.097 1.51 1.166 1.733.7.146 1.313.369 1.226.446-.026.026-.5-.034-1.06-.137-.56-.094-1.06-.155-1.104-.129-.052.026-.087.163-.087.309 0 .223-.026.249-.307.249-.517 0-.543-.12-.595-2.445-.053-2.29-.132-2.762-.587-3.217-.377-.377-.613-.437-2.024-.489-1.226-.051-1.296-.043-1.646.154-.272.146-.42.318-.605.67-.236.48-.236.489-.262 2.582-.01 1.158-.044 2.187-.07 2.299-.036.163-.465.446-.684.446-.017 0-.061-.155-.096-.343-.035-.19-.096-.36-.131-.386-.044-.026-.754.068-1.586.214-.823.146-1.524.24-1.55.223-.026-.026.009-.532.07-1.124.079-.737.158-1.14.254-1.252.14-.172.666-.317 1.892-.506.797-.12 1.27-.318 1.27-.524 0-.085-.026-.162-.061-.162-.044 0-.754.111-1.577.24l-1.515.24v-.257c.008-.146.061-.687.122-1.201.08-.695.15-.961.263-1.038.14-.103 1.577-.404 2.531-.524l.412-.06v.892c.009.807.018.875.132.73.07-.095.13-.344.13-.558 0-.309.053-.455.264-.695.245-.283.306-.309 1.068-.394 1.165-.138 1.288-.138 2.707.085Z"/></svg>
