<svg xmlns="http://www.w3.org/2000/svg" version="1.0" viewBox="0 0 1136 1136"><path d="M530.9 1.4c-.2.2-11.4.7-24.9 1-25.3.6-33.6 1.2-35.4 2.7-5.3 4.1-8.3 7-8.4 8.1 0 .7-.3 3.3-.6 5.8s-.8 16.4-1.1 31c-.6 29.6-1.4 54-1.9 58.5-.2 1.6-.4 3.8-.5 4.7-.1 1-.6 1.8-1.1 1.8-1.2 0-10.3-9.1-17-17-9.4-11-10-11.7-16-19-2.5-3-4.7-5.7-5-6-.3-.3-4.3-5.2-9-11-9.8-12.1-9-11.2-19.5-22-8.4-8.7-12.5-11.2-16.9-10.4-6.3 1.1-37.9 13.4-44.8 17.4-1 .5-2.5 1-3.3 1-.8 0-1.5.4-1.5 1 0 .5-.6 1-1.4 1-2 0-41 19.9-41.4 21.1-.2.5-.8.9-1.4.9-2.2 0-12.7 7.8-18.4 13.6-6.6 6.8-11.4 14.9-13.8 23.4-2.3 8.2-2.6 10.5-3.1 22.2-.3 6-.6 11.1-.6 11.5-.1.5-.1 1 0 1.3.1.3.4 5.7.6 12 .3 6.3.7 13.3.9 15.5.2 2.2.7 7.4 1.1 11.5.7 8.9 1.1 12.1 1.8 17.5.3 2.2.9 6.9 1.2 10.5.3 3.6.8 8.1 1.1 10 .4 3.6 1.2 10.6 1.9 17.5.2 2.2.7 6.2 1 9 .6 4.9.8 7.5 2.1 20 .3 3.3.7 7.3.9 9 .1 1.6.6 6.4 1 10.5.3 4.1.8 9.3 1 11.5.3 2.2.7 7.4 1 11.5.3 4.1.7 8.6.9 10 .2 1.4.7 5.9 1.1 10 1.1 13.1 1.9 20 3.6 28.3.6 2.9 1.3 6.3 1.5 7.7 1.2 6 3.9 14.1 7.3 21.5 3.5 7.9 8.8 16.7 10.3 17.3.4.2.8.9.8 1.5 0 .7 1.5 2.8 3.3 4.8 1.7 2 5.1 5.8 7.4 8.5 2.3 2.7 5.3 6.2 6.8 7.9 1.4 1.6 5.2 6.8 8.3 11.5l5.7 8.5v12c-.1 6.6-.4 15.6-.9 20-.4 4.4-.9 9.8-1.1 12-.9 10.8-2.3 21.4-3.1 22.7-.3.4 0 .8.6.8s.8.5.4 1.1c-.4.6-.8 2.3-.9 3.8-.5 5.4-1.6 15.7-2 18.1-.2 1.4-.6 5-.9 8-1.1 10.4-2.4 22.9-3.1 28-.3 1.9-.7 6-1 9-.3 3-.7 7.1-1 9-.5 3.8-1.2 10-2 18.2-.6 5.3-1.1 9.4-2 16.5-.2 2.1-.7 6.5-1 9.8-.4 3.3-.8 7.1-1 8.5-.2 1.4-.7 5.4-1 9-.3 3.6-.8 7.6-1 9-.2 1.4-.7 5.2-1 8.4-.3 3.3-.7 7.1-.9 8.5-.3 1.4-.7 5.5-1 9.1-.4 3.6-.8 7.5-1 8.5-.2 1.1-.7 5.4-1.1 9.5-.4 4.1-.9 8.2-1 9.1-.2.8-.6 4.8-1 8.8-.3 4-.8 8-1 8.9-.1.9-.6 3.9-1 6.7-.4 2.7-.8 5.9-1 7-.1 1.1-.6 3.8-1 6s-.9 4.8-1.1 5.7c-.8 4.5-7.3 14-9 13.1-.2-.1-.9-.1-1.6.2-1.1.3-8.1 2.3-11 3.1-.5.1-1 .3-1.3.4-.6.3-1.3.5-4.4 1.5-1.4.5-5.2 2.2-8.5 3.9-5.7 2.9-6.1 3.4-8.3 9.4-2.1 5.8-9.1 31.2-9.7 35.7-.2 1.1-.4 2-.6 2-.1 0-.3.9-.5 2-.3 2.2-3.7 17.4-6 27-.8 3.3-1.6 7.1-1.9 8.5-.3 1.4-1.9 8.8-3.6 16.5-1.7 7.7-3.3 15.1-3.5 16.5-.3 1.4-1 4.7-1.6 7.5-.6 2.7-1.3 6.1-1.5 7.5-.3 1.4-1 4.5-1.5 7-.6 2.5-1.3 5.6-1.5 7-1 5.2-1.3 6.7-2.9 14-2.3 10.4-2.3 10.3-3 14.6-.8 4.6-1.3 6.9-1.5 6.9-.1 0-.3.9-.4 2-.3 2-2.1 11.2-3 15-1 4.5-3.6 17.2-4.1 20.5-.3 1.9-1.2 6.4-2 10-.8 3.6-1.7 7.7-1.9 9.3-.3 1.5-.7 3.5-1 4.5-.3.9-.7 3.3-1 5.2-.7 4-1.2 7.2-2.1 11.5-.4 1.6-.9 7.4-1.2 12.7l-.5 9.8 4 6.7c9 15.3 25.2 25.3 58.7 36.5 5 1.7 9.7 3.2 10.5 3.3.8.2 1.7.4 2 .5.3.1 1 .3 1.5.5.6.1 1.2.3 1.5.4.3.2 1.2.4 2 .6.8.2 2.6.6 4 .9 1.4.3 3.5.7 4.8 1 1.2.4 3.2.8 4.5 1.1 7.7 1.6 7.3 1.6 18.2 3.6 3.3.6 6.9 1.3 8 1.5 2.1.3 5.9.9 16.5 2.6 3.6.5 7.6 1.1 9 1.3 2.8.3 13.1 1.4 20 2.2 4.5.5 10.5 1 19 1.7 25 2.1 28 2.3 63.4 3.1 14.3.3 26.1.7 26.3.9.2.2 1.9 0 3.8-.4s3.6-.6 3.9-.3c.6.7 23.6.6 24.2 0 .3-.3 1.8-.2 3.2.2 1.5.5 3.6.5 4.7.1s2.7-.4 3.6.1c.9.5 1.9.6 2.1.3.9-.9 12.8-1 12.8-.1 0 .4.6.5 1.2.1.7-.5 8.5-.9 17.3-1 25.9-.3 59.4-1.3 96-2.9 7.2-.3 17.1-.8 22-1 5-.2 13.5-.6 19-.9 5.5-.3 14.3-.9 19.5-1.2 16.9-.9 23.3-1.3 31.5-1.9 4.4-.3 10.9-.7 14.5-1 9.7-.6 24-1.6 28.2-2 3.9-.4 16.7-1.5 23.3-2 11.7-.9 24.7-2.2 39.9-4 2.4-.3 7-.8 10.2-1.1 3.3-.3 7-.7 8.4-.9 1.4-.2 5.2-.7 8.5-1.1 3.3-.3 6.9-.8 8-1 2.1-.4 7.8-1.3 13-1.9 1.7-.2 4.6-.6 6.5-.9 1.9-.4 4.9-.8 6.5-1.1 4.5-.6 13.1-2.3 21-4.2 1.7-.3 3.7-.7 4.5-.9 3.9-.5 18.2-4.7 24.5-7.1 11.8-4.4 18-9.3 19.1-15.1.1-.8-.8-3.5-2.1-6-1.8-3.7-3.8-10.2-5-16.2-.1-.3-.5-2.1-.9-4-3.5-16.4-5.6-26.1-6-29.4-.4-2.1-.8-4.1-1-4.5-.3-.3-.7-2.7-1.1-5.1-.3-2.5-.8-5.2-1-6-.2-.8-.6-3.1-.9-5-.3-1.9-.8-4.6-1.1-6-.3-1.4-1-4.8-1.5-7.5-.5-2.8-1.2-6.1-1.5-7.5-.3-1.4-.7-3.9-1-5.5-.3-1.7-.8-4.1-1-5.5-1.9-9.1-3.7-19.5-4.1-22.4-.2-1.6-.8-4.5-1.4-6.6-.6-2.1-1.2-5-1.4-6.6-.3-1.6-1-5.8-1.7-9.4-.6-3.6-1.2-7.2-1.4-8-.1-.8-.5-2.9-.8-4.5-.4-1.7-.9-4.6-1.3-6.5-.3-1.9-.7-4-.8-4.5-.4-1.5-1.5-7.6-2-10.8-.3-1.5-.7-3.5-1-4.5-.3-.9-.7-3.3-1-5.2-.7-4.6-1.4-7.9-3.2-16.5-.9-3.8-1.7-8.3-1.9-9.9-.7-5.1-7.7-38-8.6-40.2-.4-1.2-.6-2.4-.3-2.6.2-.3-.2-2.4-1-4.7-.9-2.3-1.5-4.4-1.5-4.6 0-.3-.7-3-1.6-5.9-2.1-6.7-6.8-11.8-15.5-16.8-5.6-3.2-20.6-9.5-24.3-10.2-1.5-.2-3-.7-3.5-1-1.1-.7-5.7-1.6-11.2-2.2-7.5-.8-8.7-1.3-9.9-4.1-1.3-3.5-2.6-11.3-3.6-22.3-.2-2.5-.7-7-1-10-.7-5.5-1.1-9.3-1.9-18.5-.3-2.8-.7-6.4-1-8-.3-1.7-.8-5.5-1.1-8.5-.3-3-.8-7.1-1-9-.2-1.9-.7-6-1-9-.3-3-.8-6.6-1-8-.3-1.4-.7-5.7-1.1-9.5-.3-3.9-.8-7.7-1-8.5-.3-.8-.8-4.2-1.1-7.5-.7-7.8-1.1-11-1.3-11-.1 0-.3-2-.5-4.5s-.6-6.5-.9-9c-.4-2.5-.9-6.5-1.2-9-.3-2.5-.8-5.8-1-7.4-.3-1.6-.7-5.5-.9-8.8-.3-3.2-.7-7.1-.9-8.6-.3-1.5-.7-5-1-7.7-.3-2.8-.8-6.8-1-9-.6-5.1-1.7-14.1-2.2-18-.2-1.7-.6-5.5-.9-8.5-.2-3-.7-7.5-1-10-.3-2.5-.7-7.2-1.1-10.5-.5-5.6-1-9.5-1.8-15.5-.3-2.2-.9-8.3-2.2-22.5-1.6-17.7-2.1-32.1-1.2-36 1.1-4.7 7.6-15.4 13.1-21.7 1.3-1.5 3.2-3.9 4.3-5.4 1.9-2.6 6.9-8.9 10.3-12.9.9-1.1 3.2-4.2 5.1-7 1.9-2.7 4.1-5.6 4.8-6.3 4.1-4.5 9.4-19.8 10.7-31.4.3-2.8.7-5.4.9-5.7.2-.3.7-3.3 1.1-6.6.4-3.3.9-6.9 1-8 .2-1.1.6-4.3 1-7 .3-2.8.9-6.8 1.2-9 .8-6 1-7.4 1.8-14.5.4-3.6.9-6.8 1.2-7.3.2-.4-.2-.7-.9-.7-.8 0-.9-.3-.3-.8 1.2-.8 1.2-1 2-9.3.3-3.5.8-7.5 1-8.9.2-1.4.7-5 1-8 .3-3 .7-7.8 1-10.5.3-2.8.7-6.8 1-9.1.3-2.2.8-6.7 1.1-10 .3-3.2.7-7 .9-8.4.1-1.4.6-5.7.9-9.5.4-3.9.9-8.8 1.2-11 .3-2.2.7-6.5.9-9.5.3-3 .7-7.3 1-9.5.6-5.2 1.3-12.3 2-20.7.8-9.6 1.6-18.8 2.1-22.8.7-6.5 1.6-20.4 1.8-30 .4-16.7-4.4-29.2-14.8-38.8-6.3-5.7-26.2-17.7-44.6-26.9-3-1.6-5.6-3.1-5.8-3.6-.2-.4-1.2-.7-2.3-.7-1.1 0-2.2-.6-2.5-1.4-.3-.8-1.7-1.7-3.2-2.1-1.5-.4-3.5-1.4-4.4-2.2-1-.9-1.8-1.4-1.8-1 0 .4-5.2-2.1-19.5-9.6-2.2-1.2-4.2-2.1-4.5-2.2-.3 0-4.5-2-9.5-4.4-4.9-2.3-9.8-4.4-10.7-4.6-.9-.2-2.6-.9-3.8-1.5-2.6-1.4-8.2-.8-11.3 1.3-5.3 3.5-14.9 14.5-28.7 32.6-1.4 1.8-4.3 5.6-6.5 8.4-2.2 2.9-6 7.9-8.5 11.2-2.5 3.3-4.8 6.2-5.1 6.5-.3.3-2.3 2.8-4.5 5.5-2.1 2.8-4.5 5.7-5.1 6.5-.7.8-3.9 4.6-7 8.5-3.2 3.8-7.1 8.5-8.8 10.3l-3 3.2-.2-44.9c-.3-55.9-.9-68-3.8-70.9-1.8-1.9-15.7-2.9-50.3-3.7-13.4-.2-24.7-.7-25.2-1-.5-.3-1.1-.1-1.5.4-.3.6-1.3.7-2.1.4-2.5-.9-40.4-.9-40.4.1 0 .5-.6.3-1.3-.3-.8-.6-1.6-.9-1.8-.7zM554 31.2c0 .7-.9 1-2.6.7-.4 0-1 .3-1.3.8-.3.4-5.3 3.2-11.1 6.1-11.4 5.7-15.4 8.8-18.8 14.3-2.7 4.5-5.1 14.8-5.7 24.2-.2 4-.5 7.2-.5 7.2-.3 0-1 40.6-1.4 78-.3 23.1-.5 42.2-.6 42.5-.1.3-.1 3 0 6 .1 7 .2 5.1-1.3 27-.6 7.6-1.7 12.8-3.1 13.8-1.9 1.6-33.8 13.7-41.1 15.6-.5.2-1.7.6-2.5.9-.8.3-8 2.7-16 5.2-8 2.6-15.2 4.9-16 5.2-.8.4-1.8.7-2.2.8-.5.2-.9.3-1 .5-.2.1-1 .3-1.8.5-1.5.3-23.2 8-26 9.2-.8.3-1.8.7-2.2.7-.3.1-1 .4-1.4.8-.4.5-1.7.8-2.9.8-1.1 0-2.5.4-3 .8-.6.5-3.2 1.7-6 2.7-13.8 5-20.5 9.7-10.5 7.3 1.9-.4 5.8-1.1 8.5-1.4 2.8-.4 5.4-.9 5.8-1.1.5-.3 2.3-.7 4-1 6-.8 26.1-4.2 29.7-4.9 1.4-.3 3.4-.6 4.5-.8 1.1-.2 3.8-.6 6-.9 2.2-.4 5.8-.9 8-1.2 2.3-.3 5-.7 6-.9 2.5-.5 12.7-1.7 18-2.2 2.2-.2 6-.6 8.5-.8 18.6-2.2 37.5-3 67.5-3 22.5 0 51 .8 51 1.4 0 .1 2.9.3 6.5.5s8.5.7 11 1.1c2.5.3 6.1.8 8 1 1.9.2 5.1.6 7 .8 1.9.3 5.5.8 8 1.2 4.8.7 7.5 1.2 7.5 1.4 0 .1 1.4.3 3 .5 4.7.7 7.8 1.2 11 1.8 1.7.4 4.1.9 5.5 1.1 5.3.9 20.9 4.8 29.2 7.3 8.8 2.6 10.9 4.6 4 3.8-2-.3-7.5-.7-12.2-1-4.7-.3-11-.8-14-1.1-25.2-2.5-58.7-3.3-88.5-2-20.9.9-30.1 1.5-35 2.1-2.2.3-6.5.7-9.5 1-6.1.5-14.1 1.4-18 2-1.4.2-4.5.6-7 1-8.1 1-21.5 3.2-21.5 3.5 0 .1-1.6.3-3.5.5-2.8.3-17.4 3.4-33 7-5.1 1.2-14.5 3.6-21 5.4-4.1 1.2-8.2 2.3-9 2.6-.8.2-4.6 1.4-8.5 2.6-3.8 1.3-7.2 2.3-7.5 2.4-.3 0-.9.3-1.5.6-.5.4-2.8 1.2-5 1.9s-5.6 2-7.5 2.8c-1.9.9-4 1.7-4.6 1.8-1.6.3-27.8 13.4-28.4 14.2-.9 1.2-6.9 5.2-7.8 5.2-.4 0-1.7.8-2.8 1.8-1 1-2.9 2.5-4.2 3.3-2.3 1.6-14.5 12.3-19.2 16.9-1.4 1.4-5 4.4-8 6.8-5.3 4.3-5.4 4.3-7 2.3-3.2-4.3-10.7-28.9-12.6-41-.5-3.3-.9-5.5-1.8-10.6-.4-2.1-1.2-7.6-2-13.5-.3-1.9-.7-4.9-.9-6.5-.3-1.7-.8-5.7-1.2-9-.3-3.3-.8-7.8-1.1-10-.3-2.2-.7-6.5-.9-9.5-.4-5.4-1.1-12.8-2.1-20.5-.7-6-1.2-11.3-1.8-18.5-.3-3.6-.9-8.3-1.2-10.5-.3-2.2-.8-6.3-1-9-.2-2.8-.6-6.9-.9-9.2-.2-2.3-.7-7-.9-10.5-.3-3.5-.7-7.4-1-8.8-.2-1.4-.7-6.3-1-11-.4-4.7-.9-10.1-1.1-12-.3-1.9-.7-6.9-1-11-.4-4.1-.8-9.5-1-12-.3-2.5-.7-11.3-1-19.5-.4-13.1-.2-15.5 1.4-19 2.6-5.7 9.6-12.3 20.8-19.5 5.4-3.5 10.9-7.1 12.3-8 1.4-1 3.5-2 4.8-2.4 1.2-.4 2.2-1.2 2.2-1.7s.4-.9 1-.9c.5 0 4.4-2 8.6-4.5 4.1-2.5 7.8-4.5 8-4.5.2 0 4-2.2 8.4-5 4.4-2.7 8-4.7 8-4.4 0 .2 1.8-.7 4-2.1 2.1-1.3 4.1-2.1 4.4-1.7.2.4.7 2.5 1 4.7.3 2.2.8 5.1 1.1 6.5.6 3.5 1.3 8.6 2.1 15.5.3 3.3.8 7.1.9 8.5 1 7.9 2 17.8 3.1 29 .3 3 .7 6.8.9 8.5.2 1.6.6 5.5.9 8.5.4 3 .9 6.5 1.1 7.7.3 1.2.7 4.4 1 7 .9 9 1.3 11.1 2.5 13.3 1 2 1.8 2.1 7.8 1.7 3.7-.3 7.4-.7 8.2-1 .8-.4 2.9-.8 4.5-1.1 1.7-.2 8.2-1.6 14.5-3.1 6.3-1.5 12.2-2.8 13-3 .8-.2 5.3-1.3 10-2.5 4.7-1.1 9.2-2.3 10.1-2.5 15.5-3.5 34.9-9.4 40.4-12.3 2.9-1.4 5.7-4.5 6.2-6.7.1-.5.4-2.1.8-3.5 1.1-5 2.3-22.5 3-44 1.1-32.8 1.4-40.8 2-46 .6-5.9 2-11.8 3.2-13.6 1.1-1.6 7-3.5 12.8-4.1 2.8-.3 5.1-.6 5.2-.7.8-.7 39.3 0 39.3.6zm183.6 29.3c.6 3.1 0 16.3-1.1 24.7-.3 2-.7 5.9-1 8.5-.2 2.6-.7 6.4-.9 8.3-.7 4.7-1.8 14.6-2.1 19.5-.3 4.3-1.2 12-2.1 20-1.4 11.2-4.3 13.8-13.2 11.5-9-2.2-13.8-4.9-15.9-8.8-4.2-7.9-1.5-17.7 15.2-54.7.7-1.7 2-4.6 2.8-6.5 10.3-24.4 16.5-32 18.3-22.5zM566.1 338.4c13.4.4 26.4.8 28.9 1 2.5.3 8.1.8 12.5 1.1 4.4.4 9.4.8 11 1 4.3.3 15.7 1.7 17.5 2 .8.1 3.5.6 6 .9 2.5.4 6.5 1.1 9 1.6s5.6 1.1 7 1.3c1.4.2 3.2.6 4 1 1.4.5 13 3.5 23.5 6.1 1.7.4 3.7 1 4.5 1.3.8.4 1.8.7 2.3.8.4.2.9.4 1.2.5.6.3.6.3 5.5 1.4 1.9.5 4 1.1 4.5 1.4.6.4 1.9.8 3 .9 1.1.2 2.4.8 2.9 1.3.6.6 1.8 1 2.7 1 2.8 0 17.9 7.2 17.3 8.2-.7 1.2-11 .2-23.9-2.2-3.3-.7-6.7-1.3-7.5-1.4-.8-.2-2.8-.6-4.5-.9-1.6-.4-4.3-.9-6-1.2-3.9-.8-6-1.3-6-1.5 0-.1-1.1-.4-2.5-.5-1.4-.2-4.5-.9-7-1.5-7.2-1.9-8.4-2.1-10-2.3-1.3-.2-1.5 3.2-1.4 24.8 0 24.5.7 38.5 1.9 41.7.4 1.1 2.5 1.9 5.8 2.4 5.4.8 6.5 1 7 1.3.1.1 1.8.4 3.7.6 1.9.3 4.6.7 6 1 1.4.3 3.6.8 5 1.1 1.4.2 4.5.9 7 1.4 2.5.5 5.6 1.2 7 1.4 1.4.2 5.7 1.1 9.5 2 3.9.9 8.1 1.8 9.5 2 1.4.3 3.4.7 4.5 1 1.1.2 7.2 1.6 13.5 3 18.6 4.2 19 4.4 19 7.1 0 1.4-.7 2.6-1.8 2.9-1.7.6-11.7 0-16.3-.9-1.3-.3-3.7-.8-5.4-1-1.6-.3-7.7-1.4-13.5-2.5-15.4-2.8-17.6-3.2-27.5-4.5-2.2-.3-5.1-.7-6.5-1-2.5-.4-7.1-1-15.5-2-2.2-.2-6.2-.7-9-1-2.7-.3-7.2-.7-10-1-12-1.1-17.3-1.6-22-2.1-34.5-3.3-94.6-3.7-135-.9-3.3.2-9.4.6-13.5.9-4.1.3-11.5.8-16.5 1.2-4.9.4-10.2.8-11.7.8-1.6.1-2.8.3-2.8.6s-2.1.6-4.8.6c-10.3.3-16.2.9-16.2 1.7 0 .5-.4.6-.9.3-.4-.3-3.5-.1-6.7.4s-6.8 1.1-7.9 1.3c-1.1.1-2.5.6-3.2 1-1.8 1.1-3.9-.1-4.2-2.6-.9-7.1.1-44.2 1.4-50.9.3-1.2.7-5 1-8.3.3-3.3 1.3-9.2 2-13 .8-3.9 1.5-7.3 1.5-7.6 0-2.3 7.4-6.8 14-8.5.8-.2 5.8-1.5 11-2.9s10.9-2.8 12.6-3c1.7-.3 4.2-.9 5.5-1.4 1.3-.5 2.7-.9 3.2-.9 1 0 8.8-1.3 11.2-1.9 3.4-.7 19.8-3.3 24.5-3.8 13.7-1.4 17.6-1.7 29.3-2 7.1-.2 13.1-.6 13.4-.9.3-.3.9-.4 1.3-.1.3.2 11.6.6 25.1.9zm-174.7 32.5c1.4 1.2 1.6 3.4 1.1 16-.6 14.7-.9 19.4-2 28.6-.3 2.7-.8 6.9-1.1 9.1-.3 2.3-.7 5.3-1 6.5-.3 1.3-.6 3.4-.7 4.6-.1 1.3-.5 2.3-.9 2.3s-.8.5-.8 1.1c0 1.5-5.9 7.1-11.3 10.7-5.4 3.7-17.4 10.2-17.8 9.7-.6-.5-.1-35.1.6-43.5.3-4.1.6-8.6.5-9.9-.1-7.2 6.2-24.1 9-24.1.6 0 1-.5 1-1.1 0-2.4 9.6-9.4 14.5-10.6 5-1.1 6.9-1 8.9.6zm191.1 81.5c2.8.2 6.4.7 8 .9 1.7.3 5.5.9 8.5 1.2 3 .4 6.4.9 7.5 1.1 1.1.2 3.6.6 5.5.9 1.9.3 4.6.7 6 1 1.4.4 3.9.8 5.5.9 1.7.2 6.2.9 10 1.6 3.9.7 8.1 1.4 9.5 1.6 1.4.1 6.1 1 10.5 1.8 4.4.9 9.6 1.9 11.5 2.2 6.8 1.1 8.4 2.5 9.7 8.4 1.4 6.4 2.2 12.1 2.8 20.5 1 13.8 1.6 17.5 4.1 26.5 3.5 12.4 13.6 23.5 26.9 29.6 5.1 2.4 5.8 2.5 7.9 1.1 3.5-2.3 4.7-9.1 5.2-28.7 1.2-52.4 1.8-57.5 6.4-55 1.8 1 4.8 8.5 5.6 13.8 1.2 9.4 1.6 15.9 1.9 33.7.2 11 .4 20 .5 20 .1 0 .3 2.2.6 4.9.2 2.7.9 5.5 1.5 6.3.6.7.8 1.3.4 1.3s-.2.7.5 1.5 1 1.5.6 1.5c-.3 0 .2.9 1.2 2.1 2 2.5 7 5 13.2 6.9 12.4 3.6 19 6.4 19 8-.1 2.6-2.1 3.2-8.6 2.6-6.5-.5-8.5-.8-15.1-2.2-1.6-.3-4.1-.7-5.8-.9-1.6-.3-6.1-1.2-10-2.1-3.8-.8-8.3-1.7-10-2-1.6-.2-5.3-.8-8.1-1.4-2.8-.6-8.5-1.2-12.7-1.4l-7.7-.4.5 10.1c.3 5.6.7 14 1 18.7.2 4.7.7 13.9 1 20.5.8 16.2 1.4 25.6 2 28.5.3 1.3.7 4.1 1 6.3.9 5.6 4.2 12.7 7.3 15.5 3.3 2.9 11 6.4 17.7 8.1 2.8.7 6.6 1.6 8.5 2.1 1.9.5 7.8 1.8 13 3s10.2 2.4 11 2.7c.8.3 2.1.7 2.7.9 11.6 2.4 29.7 11.2 23.7 11.5-4.1.2-8 0-10.4-.5-1.4-.4-4.7-.9-7.5-1.2-2.7-.3-6.8-1-8.9-1.4-2.2-.5-4.4-.7-4.8-.4-.4.3-.8.1-.8-.3 0-.5-.8-.9-1.7-1-2.3-.1-10-1.1-13.3-1.7-1.4-.2-4.3-.7-6.5-1-2.2-.3-5.1-.8-6.4-1-1.3-.3-6.1-.8-10.5-1.2-7.8-.6-8.2-.5-9.4 1.7-.7 1.3-1.4 5.2-1.6 8.5-.5 9.8-1.2 10.4-12.3 10.5-7.7 0-11.6-1.9-14.3-7-1.9-3.8-2.2-4.8-3.6-14.1-1.1-7.6-2.2-29-2.9-59.5-.9-36.2-1.4-49.6-2-50.5-.4-.6-.1-1 .5-1s.9-.4.5-1c-.3-.5-.7-4-1-7.7-.8-14.4-1.6-23.9-2.1-26.8-.4-1.7-.7-4.6-.9-6.5-.1-1.9-.3-3.5-.5-3.5-.1 0-.3-.9-.5-2-1.2-8.5-4.5-17.9-8.3-24-4.2-6.7-14.1-16.2-20.1-19.3-9-4.6-24-7.3-41.6-7.6-2.2-.1-4.3-.6-4.7-1.1-.5-.6-.8-.5-.8.3 0 .7-.4 1.1-1 .7-2.2-1.4-50.1-2.4-58.4-1.3-11.2 1.5-25.8 10.8-32.5 20.6-5.8 8.5-11.7 21.6-12.7 28.2-.3 1.9-.7 4.3-1 5.2-.8 2.6-1.4 20.1-1.9 50-.2 14.7-.6 27.2-1 27.8-.3.5-.1 1 .5 1s.9.4.6.9c-.3.5-.8 13.4-1.1 28.7-.7 33.4-1.3 48.9-2.1 52.6-1.1 5.3-17.2 16.8-23.3 16.8-2.3 0-3.6-3.3-5.6-14.3-.3-1.6-1.4-5.2-2.3-8-2-5.8-1.5-5.6-13.2-4.2-3 .3-7.3.8-9.5 1-2.2.2-4 .4-4 .5 0 .2-3.3.8-8 1.5-2.2.3-5.1.7-6.5.9-1.4.3-5.2.9-8.5 1.5-10.2 1.8-11.9 2.1-14.1 2.5-1.2.2-4.5.7-7.5 1.1-3 .4-5.7.9-6 1.1-.3.2-2.6.6-5 .9-2.4.3-5.5.7-6.9 1-1.4.3-4.3.7-6.5 1-2.2.2-5.1.7-6.5 1-3.8.8-11.4 1.7-12.7 1.6-3.4-.3-3.8-.6-3.7-3 .1-1.4.3-2.6.4-2.6 0 0 .3-4.1.5-9 .3-5 .7-10.8 1-13 .2-2.2.7-7.6 1-12 .3-4.4.8-9.1 1.1-10.5.3-1.4.7-4.5.9-7 .3-2.5.7-5.6 1-7 .3-1.4.7-4.3 1.1-6.5.3-2.2 1-5.8 1.6-8 .6-2.2 1.1-4.5 1.2-5 .3-1.5 2.7-5.8 4.1-7.1 3.4-3.4 19.4-9 31-10.8 1.7-.3 5.7-1.2 9-2s7.9-1.7 10.2-2c2.2-.3 5.2-.7 6.5-1 1.2-.3 3.7-.7 5.3-1 1.7-.2 4.6-.7 6.5-1 1.9-.3 4.6-.8 6-1 1.4-.3 4.9-1 7.8-1.6 3-.7 6.1-1.3 7-1.5.9-.2 1.8-.4 2-.5.1-.2.5-.3 1-.5.4-.1 2.1-.5 3.7-1 5.5-1.5 15.7-6.9 17.2-9.1 2-3.1 2.6-7.4 1.2-9.1-1.2-1.4-6.1-1.3-14 .2-1.3.3-4.4.8-6.9 1.1-4.3.6-5.5.8-11 1.8-1.4.3-4.3.8-6.5 1.1-2.2.3-5.1.7-6.5 1-2.3.4-7.3 1.2-12.5 1.9-1.1.2-3.6.6-5.5 1-1.9.3-5.1.8-7 1.1-1.9.2-4.6.7-6 1-1.4.3-4.5.7-7 1-2.5.3-5.8.9-7.5 1.2-4.1.9-5.4 1.1-10.2 1.8-2.3.3-6.4.9-9 1.4-3 .6-5 .6-5.4 0-.8-1.3.1-17.4 1.7-31.9.3-2.5.7-6.3.9-8.5.2-2.2.7-6 1-8.5.2-2.5.7-6.5 1-9 .2-2.5.7-5.6.9-7 .2-1.4.7-4.3 1-6.5 1.3-9.7 4.1-18.7 6.3-20.7 2-1.8 14.1-5.9 17.9-6.2 1.3 0 2.4-.4 2.4-.7 0-.3.6-.6 1.3-.6.6-.1 4.6-.8 8.7-1.8 9.2-2 9.4-2.1 15-3.1 2.5-.4 4.7-.8 5-.9 5.9-1.4 7.1-1.6 16.9-3.2 2.5-.4 4.8-.8 5.1-.8.3-.1 2.8-.5 5.5-.9 2.8-.4 6.1-1 7.5-1.2 1.4-.3 4.3-.7 6.5-.9 2.2-.3 5-.7 6.2-.9 8.2-1.7 11.3-1.8 11.4-.5 0 .8.2 14 .4 29.4.4 29 .5 31.7 2.1 32.2.9.3 4.6-4.9 5.1-7.2.1-.6.5-2.1.8-3.5.6-2.4.8-4.7 1.9-17 .7-7 .8-7.8 2.9-12.1 1.9-3.9 5.4-8.4 10.7-13.6 5.1-5 7.3-6 17-7.9 1.4-.2 3.5-.6 4.6-.9 1.2-.3 4.8-.7 8-1 3.3-.3 7.5-.8 9.4-1.1 3.6-.6 5.3-.8 18-1.9 4.1-.3 7.5-.7 7.7-.8.4-.4 25.4.1 30.8.7z"/></svg>
