<svg xmlns="http://www.w3.org/2000/svg" fill="none" viewBox="0 0 220 154"><mask id="noResults_svg__a" fill="#fff"><path fill-rule="evenodd" d="M182 116.5c0 .748-.011 1.494-.034 2.237A20.528 20.528 0 0 0 176.5 118c-11.322 0-20.5 9.178-20.5 20.5 0 5.663 2.296 10.79 6.009 14.5h-4.19c.119-.649.181-1.317.181-2 0-6.075-4.925-11-11-11s-11 4.925-11 11c0 .683.062 1.351.181 2H92.3c.85-.281 1.2-.75.7-1.5-2.5-1.5-4-3.5-5-6a7.5 7.5 0 0 0-14.15-3.472c-.435.037-.86.112-1.27.22A27.471 27.471 0 0 0 74 133.5c0-15.188-12.312-27.5-27.5-27.5-2.367 0-4.664.299-6.856.861C44.351 71.931 74.28 45 110.5 45c39.488 0 71.5 32.012 71.5 71.5ZM67.275 151.519c-.443.51-.905 1.004-1.384 1.481h1.974a7.47 7.47 0 0 1-.59-1.481Z" clip-rule="evenodd"/></mask><path fill="#F1F2F8" fill-rule="evenodd" d="M182 116.5c0 .748-.011 1.494-.034 2.237A20.528 20.528 0 0 0 176.5 118c-11.322 0-20.5 9.178-20.5 20.5 0 5.663 2.296 10.79 6.009 14.5h-4.19c.119-.649.181-1.317.181-2 0-6.075-4.925-11-11-11s-11 4.925-11 11c0 .683.062 1.351.181 2H92.3c.85-.281 1.2-.75.7-1.5-2.5-1.5-4-3.5-5-6a7.5 7.5 0 0 0-14.15-3.472c-.435.037-.86.112-1.27.22A27.471 27.471 0 0 0 74 133.5c0-15.188-12.312-27.5-27.5-27.5-2.367 0-4.664.299-6.856.861C44.351 71.931 74.28 45 110.5 45c39.488 0 71.5 32.012 71.5 71.5ZM67.275 151.519c-.443.51-.905 1.004-1.384 1.481h1.974a7.47 7.47 0 0 1-.59-1.481Z" clip-rule="evenodd"/><path fill="#DCDFEE" d="m181.966 118.737-.532 1.928 2.453.676.078-2.543-1.999-.061ZM162.009 153v2h4.83l-3.417-3.415-1.413 1.415Zm-4.19 0-1.967-.361-.434 2.361h2.401v-2Zm-21.638 0v2h2.401l-.433-2.361-1.968.361ZM92.3 153l-.628-1.899L92.3 155v-2Zm.7-1.5 1.664-1.109-.25-.375-.385-.231L93 151.5Zm-5-6h-2v.385l.143.358L88 145.5Zm-14.15-3.472.172 1.992 1.092-.093.509-.972-1.773-.927Zm-1.27.22-1.897-.636-1.18 3.517 3.587-.947-.51-1.934Zm-32.936-35.387-1.982-.267-.396 2.943 2.875-.738-.497-1.938Zm27.63 44.658 1.927-.537-.998-3.583-2.438 2.809 1.51 1.311ZM65.892 153l-1.41-1.418L61.043 155h4.848v-2Zm1.974 0v2h3.32l-1.552-2.935-1.768.935Zm116.1-34.202c.023-.763.035-1.529.035-2.298h-4c0 .728-.011 1.453-.033 2.175l3.998.123ZM176.5 120c1.711 0 3.365.232 4.934.665l1.064-3.856A22.507 22.507 0 0 0 176.5 116v4ZM158 138.5c0-10.217 8.283-18.5 18.5-18.5v-4c-12.426 0-22.5 10.074-22.5 22.5h4Zm5.422 13.085A18.436 18.436 0 0 1 158 138.5h-4a22.438 22.438 0 0 0 6.595 15.915l2.827-2.83ZM157.819 155h4.19v-4h-4.19v4ZM156 151a9.1 9.1 0 0 1-.148 1.639l3.934.722c.141-.767.214-1.556.214-2.361h-4Zm-9-9a9 9 0 0 1 9 9h4c0-7.18-5.82-13-13-13v4Zm-9 9a9 9 0 0 1 9-9v-4c-7.18 0-13 5.82-13 13h4Zm.149 1.639A9.01 9.01 0 0 1 138 151h-4c0 .805.073 1.594.214 2.361l3.935-.722ZM92.299 155h43.882v-4H92.3v4Zm-.963-2.391c.02.031-.056-.07-.09-.286a1.357 1.357 0 0 1 .146-.838c.134-.252.3-.372.347-.403.046-.031.038-.016-.067.019l1.256 3.798c.546-.181 1.485-.579 1.993-1.532.62-1.164.2-2.291-.257-2.976l-3.328 2.218Zm-5.193-6.366c1.137 2.843 2.9 5.215 5.828 6.972l2.058-3.43c-2.071-1.243-3.31-2.871-4.172-5.028l-3.714 1.486ZM80.5 140a5.5 5.5 0 0 1 5.5 5.5h4a9.5 9.5 0 0 0-9.5-9.5v4Zm-4.877 2.955A5.499 5.499 0 0 1 80.5 140v-4a9.498 9.498 0 0 0-8.421 5.101l3.544 1.854Zm-2.533 1.227c.3-.079.612-.134.931-.162l-.341-3.985a9.428 9.428 0 0 0-1.611.28l1.021 3.867ZM72 133.5c0 2.839-.463 5.567-1.317 8.112l3.793 1.272A29.469 29.469 0 0 0 76 133.5h-4ZM46.5 108c14.083 0 25.5 11.417 25.5 25.5h4c0-16.292-13.208-29.5-29.5-29.5v4Zm-6.359.799a25.554 25.554 0 0 1 6.36-.799v-4c-2.537 0-5.001.32-7.354.924l.994 3.875ZM110.5 43c-37.234 0-68 27.685-72.838 63.594l3.964.535C46.201 73.177 75.296 47 110.5 47v-4Zm73.5 73.5c0-40.593-32.907-73.5-73.5-73.5v4c38.384 0 69.5 31.116 69.5 69.5h4ZM65.765 150.208c-.412.473-.84.932-1.284 1.374l2.82 2.836a29.845 29.845 0 0 0 1.484-1.588l-3.02-2.622ZM65.89 155h1.974v-4H65.89v4Zm3.742-2.935a5.427 5.427 0 0 1-.432-1.083l-3.853 1.074a9.48 9.48 0 0 0 .749 1.879l3.536-1.87Z" mask="url(#noResults_svg__a)"/><path stroke="#DCDFEE" stroke-linecap="round" stroke-width="2" d="M97.5 135a8.5 8.5 0 1 0 8.5 8.5V121m20 9c6.075 0 11 4.925 11 11s-4.925 11-11 11-11-4.925-11-11v-21"/><path fill="#fff" stroke="#DCDFEE" stroke-linecap="round" stroke-linejoin="round" stroke-width="2" d="M104 103h12v17h-12z"/><path fill="#fff" stroke="#DCDFEE" stroke-linecap="round" stroke-linejoin="round" stroke-width="2" d="M99 96h22v17H99z"/><path fill="#fff" stroke="#DCDFEE" stroke-linecap="round" stroke-linejoin="round" stroke-width="2" d="M82.156 116c-1-3-8.5-24.5 12-32.5l14 14c-6.5.333-20.8 4.5-26 18.5Zm56 0c1-3 8.5-24.5-12-32.5l-14 14c6.5.333 20.8 4.5 26 18.5Z"/><path fill="#fff" stroke="#DCDFEE" stroke-linecap="round" stroke-linejoin="round" stroke-width="2" d="M139 63c0 16.016-12.984 41-29 41S81 79.016 81 63c0-31.016 20-59 29-59s29 27.984 29 59Z"/><path stroke="#DCDFEE" stroke-linecap="round" stroke-width="2" d="M66.799 152.799c10.935-10.935 10.935-28.663 0-39.598-10.935-10.935-28.663-10.935-39.598 0m133.598 38.598c-7.897-7.897-7.897-20.701 0-28.598 7.897-7.897 20.701-7.897 28.598 0"/><path fill="#fff" fill-rule="evenodd" d="M158.184 25.966a6.302 6.302 0 0 1-.653.034c-3.607 0-6.531-3.07-6.531-6.857 0-3.576 2.607-6.513 5.935-6.83a8.816 8.816 0 1 1 17.571-1.27A7.51 7.51 0 0 1 183 18.49a7.51 7.51 0 0 1-7.838 7.504l.001.007h-16.979v-.034Z" clip-rule="evenodd"/><path fill="#DCDFEE" d="M158.184 25.966h1v-1.11l-1.104.115.104.995Zm-1.249-13.652.094.995 1.014-.096-.115-1.012-.993.113Zm17.571-1.27-.999.029.032 1.105 1.097-.143-.13-.992Zm.656 14.949.043-1-1.188-.05.154 1.18.991-.13Zm.001.007v1h1.139l-.147-1.13-.992.13Zm-16.979 0h-1v1h1v-1Zm-.104-1.029c-.18.02-.364.029-.549.029v2c.255 0 .507-.013.756-.04l-.207-1.989Zm-.549.029c-3.009 0-5.531-2.576-5.531-5.857h-2c0 4.293 3.326 7.857 7.531 7.857v-2ZM152 19.143c0-3.096 2.249-5.57 5.029-5.834l-.189-1.99c-3.875.367-6.84 3.767-6.84 7.824h2Zm5.928-6.942a8 8 0 0 1-.05-.895h-2c0 .379.021.753.063 1.12l1.987-.225Zm-.05-.895a7.816 7.816 0 0 1 7.816-7.816v-2c-5.422 0-9.816 4.395-9.816 9.816h2Zm7.816-7.816a7.816 7.816 0 0 1 7.813 7.583l1.999-.059c-.155-5.287-4.488-9.524-9.812-9.524v2Zm8.942 8.545a6.58 6.58 0 0 1 .854-.056v-2c-.377 0-.749.025-1.113.073l.259 1.983Zm.854-.056a6.51 6.51 0 0 1 6.51 6.51h2c0-4.7-3.81-8.51-8.51-8.51v2Zm6.51 6.51A6.51 6.51 0 0 1 175.49 25v2c4.7 0 8.51-3.81 8.51-8.51h-2ZM175.49 25c-.096 0-.19-.002-.285-.006l-.086 1.998c.123.005.247.008.371.008v-2Zm-1.319 1.122.001.007 1.983-.258-.001-.007-1.983.258Zm.992-1.122h-16.979v2h16.979v-2Zm-15.979 1v-.034h-2V26h2Z"/><rect width="146" height="2" x="37" y="151" fill="#DCDFEE" rx="1"/><path stroke="#DCDFEE" stroke-linecap="round" stroke-width="2" d="M89 145a8 8 0 0 0-14.245-5L74 141"/><circle cx="110" cy="44" r="9" stroke="#DCDFEE" stroke-linecap="round" stroke-linejoin="round" stroke-width="2"/><path fill="#DCDFEE" fill-rule="evenodd" d="M111 35a.5.5 0 0 1-.146.353l-8.852 8.852a9.14 9.14 0 0 1 .091-1.505l7.607-7.607A9.052 9.052 0 0 1 111 35Zm3.904.889-12.015 12.015c.151.314.32.617.505.91l12.419-12.42a8.93 8.93 0 0 0-.909-.505Zm3.293 2.707-12.601 12.601c.271.204.554.393.848.566l12.319-12.32a9.038 9.038 0 0 0-.566-.847Zm1.732 4.268-9.283 9.282a.5.5 0 0 0 .708.707l8.644-8.644L120 44c0-.385-.024-.764-.071-1.136Z" clip-rule="evenodd"/><path stroke="#DCDFEE" stroke-linecap="round" stroke-width="2" d="M135.914 146c1.751-4.115 5.832-7 10.586-7 3.486 0 6.609 1.551 8.718 4"/><path fill="#fff" fill-rule="evenodd" d="M37.861 76.958a7.744 7.744 0 0 1-.805.042C32.606 77 29 73.213 29 68.542c0-4.412 3.216-8.034 7.32-8.424-.046-.408-.07-.823-.07-1.243C36.25 52.869 41.119 48 47.125 48c5.898 0 10.699 4.695 10.87 10.55a9.264 9.264 0 1 1 .81 18.44V77H37.862v-.042Z" clip-rule="evenodd"/><path fill="#DCDFEE" d="M37.861 76.958h1v-1.11l-1.104.116.104.994Zm-1.54-16.84.094.996 1.014-.097-.115-1.012-.994.113Zm21.674-1.567-1 .03.033 1.105 1.097-.144-.13-.991Zm.81 18.44.042-.999-1.188-.05.154 1.179.991-.13Zm0 .009v1h1.14l-.148-1.13-.991.13Zm-20.944 0h-1v1h1v-1Zm-.104-1.036a6.75 6.75 0 0 1-.701.036v2c.306 0 .61-.016.909-.047l-.208-1.99Zm-.701.036C33.204 76 30 72.707 30 68.542h-2C28 73.719 32.009 78 37.056 78v-2ZM30 68.542c0-3.931 2.858-7.09 6.415-7.428l-.19-1.991C31.575 59.565 28 63.65 28 68.542h2Zm7.314-8.537a9.982 9.982 0 0 1-.064-1.13h-2c0 .458.026.91.077 1.356l1.987-.226Zm-.064-1.13c0-5.454 4.421-9.875 9.875-9.875v-2c-6.558 0-11.875 5.317-11.875 11.875h2ZM47.125 49c5.355 0 9.715 4.263 9.87 9.58l2-.058C58.808 52.126 53.565 47 47.125 47v2Zm11 10.542c.354-.046.716-.07 1.083-.07v-2c-.454 0-.902.03-1.342.087l.259 1.983Zm1.083-.07c4.564 0 8.264 3.7 8.264 8.264h2c0-5.669-4.595-10.264-10.264-10.264v2Zm8.264 8.264c0 4.564-3.7 8.264-8.264 8.264v2c5.669 0 10.264-4.595 10.264-10.264h-2ZM59.208 76a8.61 8.61 0 0 1-.36-.008l-.086 1.998c.148.007.297.01.446.01v-2Zm-1.395 1.12v.01l1.984-.26-.001-.008-1.983.259Zm.993-1.12H37.86v2h20.945v-2ZM38.86 77v-.042h-2V77h2ZM92 21h36v2H92z"/></svg>
