<svg xmlns="http://www.w3.org/2000/svg" fill="none" viewBox="0 0 18 17"><mask id="search_svg__a" width="18" height="17" x="0" y="0" maskUnits="userSpaceOnUse" style="mask-type:luminance"><path fill="#fff" d="M17.024.253H.515v16.509h16.509V.253Z"/></mask><g mask="url(#search_svg__a)"><path fill="#fff" d="M12.896 6.961a5.679 5.679 0 1 1-11.358.006 5.679 5.679 0 0 1 11.358-.006Zm-.266 3.966A6.71 6.71 0 0 0 5.722.424a6.707 6.707 0 1 0 5.466 11.945c.03.042.064.082.1.119l3.972 3.972a1.033 1.033 0 0 0 1.461-1.459l-3.973-3.973a1.034 1.034 0 0 0-.12-.1l.002-.001Z"/></g></svg>
